<mxfile host="app.diagrams.net" modified="2024-02-06T06:26:00.904Z" agent="Mozilla/5.0 (Windows NT 10.0; Win64; x64) AppleWebKit/537.36 (KHTML, like Gecko) Chrome/121.0.0.0 Safari/537.36" version="23.1.1" etag="4bIkz_iQTWaxMnTNH44J" type="github">
  <diagram name="Page-1" id="DUnur9IYiGMK7OYPqbQq">
    <mxGraphModel>
      <root>
        <mxCell id="0" />
        <mxCell id="1" parent="0" />
      </root>
    </mxGraphModel>
  </diagram>
</mxfile>
